<svg viewBox="0 0 2500 1000" xmlns="http://www.w3.org/2000/svg" xml:space="preserve" style="fill-rule:evenodd;clip-rule:evenodd;stroke-linejoin:round;stroke-miterlimit:2"><path style="fill:none" d="M0 0h2000v2000H0z" transform="scale(1.25 .5)"/><path d="M997.5 1160.76c-1.087-.75-2.201-1.95-3.34-3.53l2.057-1.27-1.314-2.13-1.314-2.13-2.074 1.29a90.098 90.098 0 0 1-2.317-4.52l2.253-1.03-2.077-4.55-2.256 1.03c-.654-1.49-1.315-3.05-1.983-4.67l2.31-.93-1.868-4.64-2.311.93a533.95 533.95 0 0 1-1.842-4.73l2.333-.89-1.777-4.67-2.333.89c-.59-1.57-1.185-3.15-1.784-4.76l2.342-.87-1.747-4.69-2.342.88c-.588-1.58-1.18-3.17-1.777-4.76l2.342-.88-1.76-4.68-2.343.88a1148.2 1148.2 0 0 0-1.81-4.74l2.334-.91-1.814-4.66-2.334.91c-.625-1.58-1.253-3.16-1.886-4.71l2.317-.96-1.912-4.62-2.318.96c-.667-1.58-1.339-3.14-2.014-4.66l2.287-1.05-2.073-4.55-2.288 1.05a181.35 181.35 0 0 0-2.224-4.57l2.23-1.18-2.339-4.42-2.232 1.18c-.855-1.53-1.716-2.99-2.582-4.37l2.103-1.43-1.409-2.07-1.41-2.06-2.109 1.44a73.661 73.661 0 0 0-3.196-3.95l1.872-1.7-3.364-3.7-1.869 1.7c-1.127-1.18-2.315-2.4-3.554-3.62l1.745-1.81-3.602-3.47-1.744 1.81a247.81 247.81 0 0 0-3.733-3.44l1.668-1.88-3.737-3.32-1.667 1.88c-1.266-1.11-2.55-2.22-3.844-3.32l1.613-1.92-3.827-3.22-1.613 1.92a555.29 555.29 0 0 0-3.922-3.22l1.572-1.95-3.894-3.14-1.572 1.95c-1.34-1.07-2.67-2.12-3.981-3.15l1.538-1.98-3.946-3.07-1.538 1.98c-1.378-1.06-2.725-2.1-4.031-3.09l1.509-2-3.991-3.01-1.508 2a618.995 618.995 0 0 0-4.074-3.03l1.481-2.02-4.032-2.96-1.481 2.02a531.28 531.28 0 0 0-4.117-2.97c.01-.01.019-.03.028-.04l1.416-2.02-2.046-1.43a2.234 2.234 0 0 0-.477-.27c-.065-.02-.132-.05-.2-.07l-2.382-.76-.741 2.33a44.99 44.99 0 0 1-5.399-2.42l1.286-2.046-2.115-1.333-2.115-1.333-1.283 2.036a28.905 28.905 0 0 1-4.369-3.978l1.919-1.412-1.481-2.014-1.481-2.014-1.919 1.411a27.968 27.968 0 0 1-2.477-5.364l2.327-.591-.616-2.423-.616-2.423-2.333.593a40.575 40.575 0 0 1-.589-5.887l2.437.052.054-2.499.053-2.5-2.441-.052c.127-1.879.352-3.839.677-5.883l2.417.465.472-2.455c.062-.319.06-.647-.004-.965l-.492-2.451-2.444.491a353.48 353.48 0 0 1-1.032-5.508l2.455-.418-.84-4.929-2.453.418a234.212 234.212 0 0 1-.827-5.542l2.466-.305-.614-4.962-2.464.305a154.73 154.73 0 0 1-.514-5.58l2.472-.134-.27-4.993-2.471.134a101.12 101.12 0 0 1-.038-5.602l2.46.126.255-4.994-2.457-.125c.16-1.908.39-3.762.699-5.557l2.384.523.537-2.441.536-2.442-2.38-.523a41.36 41.36 0 0 1 1.828-5.289l2.146 1.099 1.139-2.226 1.14-2.225-2.142-1.097a30.448 30.448 0 0 1 3.335-4.486l1.638 1.746 1.823-1.71c.504-.473.79-1.133.79-1.824v-2.5h-2.487c.017-1.637.05-3.305.104-5.002l2.484.106.212-4.996-2.484-.105c.089-1.644.197-3.309.327-4.992l2.475.221.446-4.98-2.475-.221c.168-1.644.358-3.302.572-4.971l2.458.349.703-4.95-2.459-.349c.256-1.637.535-3.282.841-4.932l2.433.488.492-2.451.492-2.451-2.433-.488c.352-1.622.73-3.247 1.136-4.872l2.395.641.647-2.415.646-2.415-2.395-.641c.457-1.597.943-3.193 1.459-4.785l2.342.807.814-2.364.815-2.363-2.341-.807c.57-1.562 1.173-3.117 1.808-4.665l2.27.986.996-2.293.995-2.294-2.269-.985c.693-1.511 1.42-3.012 2.182-4.501l2.176 1.174 1.187-2.201 1.187-2.2-2.176-1.174a109.557 109.557 0 0 1 2.573-4.29l2.057 1.368 1.384-2.081 1.385-2.082-2.057-1.368c.952-1.36 1.941-2.702 2.968-4.027l1.912 1.562 1.581-1.937 1.581-1.937-1.912-1.561a98.55 98.55 0 0 1 3.353-3.711l1.745 1.746 1.768-1.767 1.769-1.768-1.745-1.745a97.303 97.303 0 0 1 3.714-3.351l1.558 1.914 3.878-3.156-1.559-1.915a99.744 99.744 0 0 1 4.034-2.959l1.36 2.061 4.173-2.755-1.361-2.061a105.107 105.107 0 0 1 4.303-2.552l1.159 2.183 4.416-2.347-1.16-2.182c1.471-.74 2.977-1.455 4.518-2.146l.963 2.278 4.606-1.947-.963-2.278c1.528-.609 3.09-1.195 4.684-1.756l.777 2.351 4.747-1.568-.776-2.351c1.571-.486 3.173-.95 4.806-1.39l.603 2.404 4.849-1.217-.603-2.404c1.602-.373 3.232-.724 4.891-1.053l.444 2.44 4.919-.895-.444-2.441c1.623-.27 3.271-.52 4.947-.748l.3 2.464 4.964-.606-.301-2.464c1.636-.177 3.296-.335 4.98-.473l.172 2.478 4.988-.345-.172-2.479c1.644-.094 3.31-.169 4.998-.226l.056 2.485 4.999-.112-.056-2.486a246.497 246.497 0 0 1 4.999-.004l-.05 2.485 2.5.053 2.5.052.05-2.485c1.69.055 3.36.129 5 .222l-.17 2.478 2.49.172 2.5.172.17-2.478c1.68.137 3.34.295 4.98.473l-.3 2.464 2.48.304 2.48.305.3-2.464c1.68.23 3.33.481 4.95.753l-.45 2.44 2.46.452 2.46.452.45-2.44c1.65.333 3.28.687 4.88 1.064l-.6 2.402 2.42.614 2.42.615.61-2.402c1.63.444 3.23.912 4.8 1.403l-.78 2.349 2.37.791 2.37.792.79-2.349c1.59.567 3.15 1.158 4.67 1.772l-.97 2.275 2.3.981 2.3.982.97-2.275c1.54.697 3.04 1.418 4.51 2.162l-1.16 2.179 2.2 1.181 2.2 1.181 1.17-2.178c1.47.83 2.9 1.686 4.29 2.565l-1.36 2.058 2.08 1.383 2.08 1.383 1.37-2.057c1.38.966 2.72 1.956 4.03 2.969l-1.57 1.912 1.94 1.581 1.94 1.582 1.56-1.912c1.27 1.096 2.51 2.215 3.71 3.355l-1.75 1.746 1.77 1.767 1.77 1.768 1.74-1.746a96.93 96.93 0 0 1 3.36 3.709l-1.91 1.564 1.58 1.934 1.59 1.935 1.91-1.565c1.03 1.322 2.02 2.662 2.98 4.018l-2.05 1.376 1.39 2.077 1.39 2.077 2.05-1.376c.9 1.412 1.76 2.839 2.59 4.278l-2.17 1.186 2.4 4.388 2.17-1.186c.77 1.486 1.51 2.983 2.21 4.488l-2.26 1.001 2.02 4.573 2.26-1.001c.65 1.545 1.26 3.096 1.84 4.652l-2.33.824 1.66 4.715 2.34-.825c.53 1.59 1.02 3.182 1.49 4.774l-2.39.66 1.34 4.82 2.39-.66c.41 1.624.81 3.246 1.17 4.863l-2.43.507 1.02 4.894 2.43-.507c.32 1.651.61 3.293.88 4.926l-2.46.366.74 4.945 2.45-.366c.23 1.671.43 3.327.61 4.966l-2.48.236.48 4.977 2.47-.235c.14 1.687.26 3.352.35 4.991l-2.48.114.23 4.994 2.48-.113c.06 1.703.1 3.371.11 5.001h-2.48v5h4.87c1 1.186 1.9 2.446 2.71 3.774l-2.14 1.097 1.14 2.225 1.14 2.226 2.15-1.099a41.65 41.65 0 0 1 1.82 5.289l-2.38.523.54 2.442.54 2.442 2.38-.524c.31 1.795.54 3.649.7 5.557l-2.46.125.26 4.994 2.46-.126c.04 1.828.02 3.696-.04 5.602l-2.47-.134-.27 4.993 2.47.134c-.13 1.832-.31 3.693-.51 5.58l-2.47-.305-.61 4.962 2.47.305c-.26 1.828-.53 3.676-.83 5.542l-2.45-.418-.84 4.929 2.45.418a423.57 423.57 0 0 1-1.03 5.508l-2.45-.491-.49 2.451a2.61 2.61 0 0 0 0 .965l.47 2.455 2.42-.465c.32 2.044.55 4.004.67 5.883l-2.44.052.06 2.5.05 2.499 2.44-.052a40.156 40.156 0 0 1-.59 5.887l-2.33-.593-.62 2.423-.62 2.423 2.33.591a28.098 28.098 0 0 1-2.48 5.364l-1.92-1.411-1.48 2.014-1.48 2.014 1.92 1.412a29.047 29.047 0 0 1-4.37 3.977l-1.28-2.035-2.12 1.333-2.11 1.333 1.29 2.046c-1.69.9-3.49 1.7-5.4 2.42l-.75-2.33-2.38.76-2.38.76 1 3.14c-1.02.73-2.38 1.71-4.01 2.9l-1.48-2.02-4.04 2.96 1.49 2.02c-1.28.94-2.64 1.95-4.08 3.03l-1.51-2-3.99 3.01 1.51 2c-1.3.99-2.65 2.03-4.03 3.09l-1.54-1.98-3.94 3.07 1.53 1.98c-1.31 1.03-2.64 2.08-3.98 3.15l-1.57-1.95-3.89 3.14 1.57 1.95c-1.31 1.06-2.62 2.14-3.92 3.22l-1.62-1.92-3.82 3.22 1.61 1.92c-1.29 1.1-2.58 2.21-3.84 3.32l-1.67-1.88-3.74 3.32 1.67 1.88c-1.27 1.15-2.52 2.3-3.73 3.44l-1.75-1.81-3.6 3.47 1.75 1.81c-1.24 1.22-2.43 2.44-3.56 3.62l-1.87-1.7-3.36 3.7 1.87 1.7a80.817 80.817 0 0 0-3.2 3.95l-2.1-1.44-1.41 2.06-1.41 2.07 2.1 1.43c-.87 1.38-1.73 2.84-2.58 4.37l-2.23-1.18-2.34 4.42 2.23 1.18c-.75 1.48-1.49 3-2.23 4.57l-2.29-1.05-2.07 4.55 2.29 1.05c-.68 1.52-1.35 3.08-2.01 4.66l-2.32-.96-1.92 4.62 2.32.96c-.63 1.55-1.26 3.13-1.88 4.71l-2.34-.91-1.81 4.66 2.33.91c-.61 1.58-1.21 3.16-1.81 4.74l-2.34-.88-1.76 4.68 2.34.88c-.6 1.59-1.19 3.18-1.78 4.76l-2.34-.88-1.74 4.69 2.34.87c-.6 1.61-1.2 3.19-1.79 4.76l-2.33-.89-1.78 4.67 2.34.89c-.62 1.61-1.24 3.19-1.85 4.73l-2.31-.93-1.86 4.64 2.31.93c-.67 1.62-1.33 3.18-1.99 4.67l-2.25-1.03-2.08 4.55 2.25 1.03c-.78 1.63-1.55 3.14-2.31 4.52l-2.08-1.29-1.31 2.13-1.32 2.13 2.06 1.27c-1.14 1.58-2.25 2.78-3.34 3.53v-1.61h-5v1.61Zm28.75-229.92v2.012h.01c.02.891.06 1.777.13 2.656l-.01.001.03.299c.05.649.12 1.294.19 1.935l.02.199c.11.884.24 1.761.39 2.632l.01.065c.14.784.3 1.561.47 2.333a51.55 51.55 0 0 0 3.16 9.619l.03.065v-.001c.36.813.74 1.614 1.14 2.404l-.01.002.11.193c.28.559.58 1.113.88 1.66l.17.303v-.003c.44.772.9 1.532 1.37 2.279l-.01.006.38.561.54.81.44.662.01-.007c.51.725 1.04 1.436 1.59 2.134l-.01.01 1.55 1.89.01-.011c.58.671 1.18 1.328 1.79 1.969l-.01.013 1.72 1.729.02-.013a45.94 45.94 0 0 0 1.97 1.786l-.01.014 1.88 1.551.01-.013c.7.547 1.41 1.076 2.14 1.586l-.01.012.66.442.81.541.57.375v-.009c.75.476 1.51.932 2.28 1.37v.007l.3.162a55 55 0 0 0 1.66.887l.19.103.01-.004c.79.4 1.59.78 2.4 1.14v.002l.06.027c.73.319 1.46.622 2.2.908a51.217 51.217 0 0 0 9.76 2.717l.06.013v-.002c.87.151 1.75.281 2.63.388v.004l.2.02c.64.075 1.29.139 1.94.19l.3.03v-.007c.88.065 1.76.109 2.65.129v.008h.44a51.04 51.04 0 0 0 1.57 0h.44v-.008c.89-.02 1.77-.064 2.65-.129v.007l.3-.03c.65-.051 1.3-.115 1.94-.19l.2-.02v-.004c.88-.107 1.76-.237 2.63-.388v.002l.07-.013a51.217 51.217 0 0 0 9.75-2.717c.74-.286 1.47-.589 2.2-.908l.06-.027v-.002c.81-.36 1.61-.74 2.4-1.14l.01.004.19-.103a55 55 0 0 0 1.66-.887l.3-.162v-.007c.77-.438 1.53-.894 2.28-1.37l.01.009.56-.375.81-.541.66-.442-.01-.012c.73-.51 1.44-1.039 2.14-1.586l.01.013 1.88-1.551-.01-.014a45.94 45.94 0 0 0 1.97-1.786l.02.013 1.73-1.729-.02-.013c.61-.641 1.21-1.298 1.79-1.969l.01.011 1.55-1.89-.01-.01c.55-.698 1.08-1.409 1.59-2.134l.01.007.44-.662.54-.81.38-.561-.01-.006c.47-.747.93-1.507 1.37-2.279v.003l.17-.303c.3-.547.6-1.101.88-1.66l.11-.193-.01-.002c.4-.79.78-1.591 1.14-2.404v.001l.03-.065a51.55 51.55 0 0 0 3.16-9.619c.17-.772.33-1.549.47-2.333l.01-.065c.15-.871.28-1.748.39-2.632l.02-.199c.07-.641.14-1.286.19-1.935l.03-.299-.01-.001c.07-.879.11-1.765.13-2.656h.01v-.434c0-.262.01-.525.01-.789 0-.263-.01-.526-.01-.789v-.433h-.01a46.74 46.74 0 0 0-.13-2.657l.01-.001-.03-.299a61.5 61.5 0 0 0-.19-1.935l-.02-.199v.001c-.11-.884-.24-1.762-.39-2.632l-.01-.066c-.14-.783-.3-1.561-.47-2.332a51.563 51.563 0 0 0-3.16-9.619l-.03-.065c-.36-.812-.74-1.614-1.14-2.403l.01-.003-.11-.193c-.28-.559-.58-1.112-.88-1.659l-.17-.304v.004c-.44-.773-.9-1.533-1.37-2.28l.01-.006-.38-.561-.54-.81-.44-.662-.01.008a48.38 48.38 0 0 0-1.59-2.134l.01-.011-1.55-1.889-.01.011a54.835 54.835 0 0 0-1.79-1.969l.02-.014-1.73-1.729-.02.014a45.286 45.286 0 0 0-1.97-1.786l.01-.014-1.88-1.551-.01.012c-.7-.546-1.41-1.075-2.14-1.586l.01-.011-.66-.442-.81-.542-.56-.374-.01.008a56.14 56.14 0 0 0-2.28-1.37v-.006l-.3-.162a52.83 52.83 0 0 0-1.66-.887l-.19-.104-.01.004c-.79-.4-1.59-.78-2.4-1.14v-.001l-.06-.027c-.73-.319-1.46-.622-2.2-.909a51.339 51.339 0 0 0-9.75-2.716l-.07-.013v.001a53.55 53.55 0 0 0-2.63-.388v-.004l-.2-.019c-.64-.076-1.29-.139-1.94-.191l-.3-.029v.006c-.88-.065-1.76-.108-2.65-.129v-.008h-.44a50.705 50.705 0 0 0-1.57 0h-.44v.008c-.89.021-1.77.064-2.65.129v-.006l-.3.029c-.65.052-1.3.115-1.94.191l-.2.019v.004c-.88.108-1.76.237-2.63.388v-.001l-.06.013a51.339 51.339 0 0 0-9.76 2.716c-.74.287-1.47.59-2.2.909l-.06.027v.001c-.81.36-1.61.74-2.4 1.14l-.01-.004-.19.104c-.56.286-1.11.581-1.66.887l-.3.162v.006c-.77.438-1.53.895-2.28 1.37v-.008l-.57.374-.81.542-.66.442.01.011c-.73.511-1.44 1.04-2.14 1.586l-.01-.012-1.88 1.551.01.014c-.68.578-1.33 1.174-1.97 1.786l-.02-.014-1.72 1.729.01.014c-.61.641-1.21 1.297-1.79 1.969l-.01-.011-1.55 1.889.01.011a48.38 48.38 0 0 0-1.59 2.134l-.01-.008-.44.662-.54.81-.38.561.01.006c-.47.747-.93 1.507-1.37 2.28v-.004l-.17.304c-.3.547-.6 1.1-.88 1.659l-.11.193.01.003c-.4.789-.78 1.591-1.14 2.403l-.03.065a51.563 51.563 0 0 0-3.16 9.619c-.17.771-.33 1.549-.47 2.332l-.01.066c-.15.87-.28 1.748-.39 2.632v-.001l-.02.199a61.5 61.5 0 0 0-.19 1.935l-.03.299.01.001c-.07.88-.11 1.766-.13 2.657h-.01v.433ZM997.5 769.552v5h5v-5h-5Zm0 92.273v5h5v-5h-5Zm0-82.02v5h5v-5h-5Zm0 71.768v5h5v-5h-5Zm0-41.011v5h5v-5h-5Zm0 61.515v5.001h5v-5.001h-5Zm0 20.506v5h5v-5h-5Zm-127.739 40.269h.014c.021.891.064 1.776.129 2.656l-.013.001.068.685c.037.39.075.778.115 1.167l.057.581.01-.001c.107.884.237 1.762.388 2.631l-.008.002.067.336c.109.605.229 1.206.359 1.803l.051.259.006-.001c.193.868.409 1.729.645 2.58l-.004.002.057.188c.186.659.384 1.313.595 1.962l.058.189.004-.001c.278.844.577 1.679.897 2.504l-.005.002.102.247c.224.569.458 1.132.701 1.691l.133.321.006-.003c.36.812.74 1.614 1.14 2.403l-.009.005.289.541c.171.322.343.643.515.963l.349.652.011-.006c.438.772.895 1.532 1.37 2.279l-.014.009 1.359 2.033.016-.011a51 51 0 0 0 1.585 2.134l-.016.014 1.551 1.89.018-.015a51.964 51.964 0 0 0 1.786 1.969l-.018.017 1.729 1.729.017-.017a53.718 53.718 0 0 0 1.969 1.786l-.015.018 1.89 1.551.014-.017a52.615 52.615 0 0 0 2.134 1.586l-.011.016 2.033 1.358.009-.014c.747.476 1.507.933 2.279 1.37l-.006.012.652.348c.32.173.641.344.963.515l.541.289.005-.009c.79.4 1.591.78 2.403 1.14l-.003.007.321.133c.559.243 1.123.476 1.691.7l.247.102.002-.005c.825.32 1.66.619 2.504.898l-.001.004.189.057c.649.211 1.303.409 1.963.595l.188.057.001-.004c.852.237 1.712.452 2.581.646l-.001.005.258.051c.597.13 1.199.25 1.804.359l.335.067.002-.007c.87.151 1.747.28 2.631.387l-.001.01.581.057c.389.04.778.078 1.167.115l.685.068.001-.012c.88.065 1.766.108 2.657.128v.014h2.444v-.014c.892-.02 1.777-.063 2.657-.128l.001.012.685-.068c.389-.037.778-.075 1.167-.115l.581-.057-.001-.01a51.739 51.739 0 0 0 2.631-.387l.002.007.336-.067a51.299 51.299 0 0 0 1.803-.359l.259-.051-.002-.005a51.483 51.483 0 0 0 2.581-.646l.001.004.189-.057a52.236 52.236 0 0 0 1.962-.595l.189-.057-.001-.004a52.418 52.418 0 0 0 2.504-.898l.002.005.247-.102a53.176 53.176 0 0 0 1.691-.7l.321-.133-.003-.007c.812-.36 1.613-.74 2.403-1.14l.005.009.541-.289c.322-.171.643-.342.963-.515l.652-.348-.006-.012a50.908 50.908 0 0 0 2.279-1.37l.009.014 2.033-1.358-.011-.016a52.615 52.615 0 0 0 2.134-1.586l.014.017 1.89-1.551-.015-.018a53.718 53.718 0 0 0 1.969-1.786l.017.017 1.729-1.729-.017-.017a52.8 52.8 0 0 0 1.785-1.969l.019.015 1.551-1.89-.017-.014a51 51 0 0 0 1.585-2.134l.016.011 1.359-2.033-.014-.009c.476-.747.932-1.507 1.37-2.279l.011.006.349-.652c.172-.32.344-.641.515-.963l.289-.541-.009-.005c.4-.789.78-1.591 1.14-2.403l.007.003.132-.321c.244-.559.477-1.122.701-1.691l.102-.247-.005-.002c.32-.825.619-1.66.897-2.504l.004.001.058-.189c.211-.649.409-1.303.595-1.962l.057-.188-.004-.002c.237-.851.452-1.712.645-2.58l.006.001.051-.259c.13-.597.25-1.198.359-1.803l.067-.336-.007-.002c.151-.869.28-1.747.387-2.631l.01.001.057-.581c.04-.389.078-.777.115-1.167l.068-.685-.013-.001c.065-.88.108-1.765.129-2.656h.014v-2.445h-.014a52.938 52.938 0 0 0-.129-2.656l.013-.002-.068-.685c-.037-.389-.075-.778-.115-1.166l-.057-.582-.01.001a51.739 51.739 0 0 0-.387-2.631l.007-.001-.067-.336a51.354 51.354 0 0 0-.359-1.804l-.051-.258-.006.001a50.41 50.41 0 0 0-.645-2.581l.004-.001-.057-.188a51.726 51.726 0 0 0-.595-1.963l-.058-.189-.004.002a50.996 50.996 0 0 0-.897-2.505l.005-.002-.102-.246a50.132 50.132 0 0 0-.701-1.692l-.132-.32-.007.002c-.36-.812-.74-1.613-1.14-2.403l.009-.005-.289-.541-.515-.963-.349-.652-.011.006a51.867 51.867 0 0 0-1.37-2.279l.014-.009-1.359-2.033-.016.011a52.351 52.351 0 0 0-1.585-2.134l.017-.014-1.551-1.889-.019.014a51.987 51.987 0 0 0-1.785-1.968l.017-.018-1.729-1.729-.017.018a52.826 52.826 0 0 0-1.969-1.786l.015-.018-1.89-1.551-.014.017a51.69 51.69 0 0 0-2.134-1.586l.011-.016-2.033-1.358-.009.013a52.864 52.864 0 0 0-2.279-1.37l.006-.011-.652-.349c-.32-.172-.641-.344-.963-.514l-.541-.29-.005.009c-.79-.399-1.591-.78-2.403-1.139l.003-.007-.321-.133a53.197 53.197 0 0 0-1.691-.701l-.247-.102-.002.005c-.825-.32-1.66-.619-2.504-.897l.001-.004-.189-.058a54.168 54.168 0 0 0-1.962-.595l-.189-.057-.001.004a51.476 51.476 0 0 0-2.581-.645l.002-.005-.259-.052a51.291 51.291 0 0 0-1.803-.358l-.336-.067-.002.007a51.741 51.741 0 0 0-2.631-.388l.001-.01-.581-.057c-.389-.039-.778-.078-1.167-.115l-.685-.067-.001.012a52.978 52.978 0 0 0-2.657-.129v-.014h-2.444v.014c-.891.021-1.777.064-2.657.129l-.001-.012-.685.067c-.389.037-.778.076-1.167.115l-.581.057.001.01c-.884.107-1.761.237-2.631.388l-.002-.007-.335.067c-.605.109-1.207.228-1.804.358l-.258.052.001.005c-.869.193-1.729.409-2.581.645l-.001-.004-.188.057c-.66.186-1.314.385-1.963.595l-.189.058.001.004c-.844.278-1.679.577-2.504.897l-.002-.005-.247.102c-.568.224-1.132.458-1.691.701l-.321.133.003.007c-.812.359-1.613.74-2.403 1.139l-.005-.009-.541.29c-.322.17-.643.342-.963.514l-.652.349.006.011c-.772.438-1.532.895-2.279 1.37l-.009-.013-2.033 1.358.011.016a51.69 51.69 0 0 0-2.134 1.586l-.014-.017-1.89 1.551.015.018a52.826 52.826 0 0 0-1.969 1.786l-.017-.018-1.729 1.729.018.018a51.177 51.177 0 0 0-1.786 1.968l-.018-.014-1.551 1.889.016.014a52.351 52.351 0 0 0-1.585 2.134l-.016-.011-1.359 2.033.014.009a52.864 52.864 0 0 0-1.37 2.279l-.011-.006-.349.652-.515.963-.289.541.009.005c-.4.79-.78 1.591-1.14 2.403l-.006-.002-.133.32a52.298 52.298 0 0 0-.701 1.692l-.102.246.005.002c-.32.825-.619 1.66-.897 2.505l-.004-.002-.058.189a51.726 51.726 0 0 0-.595 1.963l-.057.188.004.001a51.476 51.476 0 0 0-.645 2.581l-.006-.001-.051.258c-.13.598-.25 1.199-.359 1.804l-.067.336.008.001c-.151.87-.281 1.747-.388 2.631l-.01-.001-.057.582c-.04.388-.078.777-.115 1.166l-.068.685.013.002a52.938 52.938 0 0 0-.129 2.656h-.014v2.445ZM997.5 882.33v5h5v-5h-5Zm0-51.263v5h5v-5h-5Zm0-30.757v5h5v-5h-5Zm0 20.505v5h5v-5h-5Zm0 92.273v5h5v-5h-5Zm0-71.768v5h5v-5h-5Zm0 61.515v5h5v-5h-5Zm0-112.778v5h5v-5h-5Zm0 225.553v5h5v-5h-5Zm0-20.503v5.003h5v-5.003h-5Zm0 71.773v5h5v-5h-5Zm0-10.26v5h5v-5h-5Zm0 51.27v5h5v-5h-5Zm0-133.287v5h5v-5h-5Zm0-41.011v5.001h5v-5.001h-5Zm0 184.548v5h5v-5h-5Zm0 30.75v5h5v-5h-5Zm0-71.76v5h5v-5h-5Zm0-30.76v5h5v-5h-5Zm0 41.01v5h5v-5h-5Zm0 10.25v5h5v-5h-5Zm0-112.775v5h5v-5h-5Zm0-61.515v5h5v-5h-5ZM990 960c-2.645 12.177-17.801 16.764-17.801 24.589 0 4.912 3.988 8.9 8.901 8.9 4.912 0 8.9-3.988 8.9-8.9V960Zm7.5-16.156v5.001h5v-5.001h-5Zm0 61.516v5h5v-5h-5ZM1010 960v24.589c0 4.912 3.99 8.9 8.9 8.9s8.9-3.988 8.9-8.9c0-7.825-15.16-12.412-17.8-24.589Zm-12.5 4.35v5h5v-5h-5Zm0 174.29v5h5v-5h-5Zm0-184.543v5.001h5v-5.001h-5Zm0 174.293v5h5v-5h-5Zm0-92.27v5h5v-5h-5Zm0-10.25v5h5v-5h-5Z" style="fill:#f2f2f2" transform="matrix(1.41452 0 0 1.41451 -997.498 -855.286)"/><path d="M1585.04 713.617c26.35 0 47.75 21.396 47.75 47.75 0 26.355-21.4 47.751-47.75 47.751s-47.75-21.396-47.75-47.751c0-26.354 21.4-47.75 47.75-47.75Zm0 2.076c25.21 0 45.68 20.466 45.68 45.674 0 25.209-20.47 45.675-45.68 45.675s-45.67-20.466-45.67-45.675c0-25.208 20.46-45.674 45.67-45.674Z" style="fill:#f2f2f2" transform="matrix(1.08895 0 0 1.08894 -1198.324 -366.57)"/><path d="M1616.91 786.847c3.63 0 6.57 2.947 6.57 6.576a6.574 6.574 0 1 1-13.15 0 6.582 6.582 0 0 1 6.58-6.576Zm2.77 1.774a5.544 5.544 0 0 0-5.55 9.601c-2.29-1.536-3.01-4.75-1.54-7.294 1.47-2.545 4.61-3.523 7.09-2.307Zm-1.01 3.037a2.5 2.5 0 0 0-3.53 0 2.501 2.501 0 0 0 0 3.527c-.81-.934-.76-2.416.18-3.35.93-.935 2.42-.994 3.35-.177Zm-1.76.528c-.69 0-1.24.554-1.24 1.237a1.236 1.236 0 1 0 2.47 0c0-.683-.55-1.237-1.23-1.237Zm-2.33 5.274a4.654 4.654 0 0 0 6.36-1.707 4.658 4.658 0 0 0-1.7-6.369c1.93 1.292 2.54 3.996 1.3 6.136-1.23 2.141-3.88 2.964-5.96 1.94Z" style="fill:#f2f2f2" transform="matrix(5.8837 0 0 5.88366 -8985.7 -4205.722)"/><path d="m1469.09 750.926-3.93-1.61c-.16-3.416-.16-6.839 0-10.255l3.93-1.61c-.14 2.228-.21 4.474-.21 6.738 0 2.263.07 4.509.21 6.737Zm3.03-32.727-3.22-2.734c.9-3.299 1.96-6.554 3.17-9.753l4.22-.315a104.603 104.603 0 0 0-4.17 12.802Zm13.03-30.153-2.24-3.62c1.88-2.859 3.89-5.628 6.03-8.297l4.15 1.014a106.31 106.31 0 0 0-7.94 10.903Zm21.7-24.66-1.02-4.15c2.67-2.138 5.44-4.15 8.3-6.028l3.62 2.239a104.516 104.516 0 0 0-10.9 7.939Zm28.25-16.802.31-4.222c3.21-1.209 6.46-2.266 9.76-3.169l2.73 3.228a104.588 104.588 0 0 0-12.8 4.163Zm32.05-7.196 1.61-3.932c3.42-.161 6.84-.161 10.26 0l1.61 3.932a106.862 106.862 0 0 0-13.48 0Zm32.73 3.033 2.74-3.228c3.29.903 6.55 1.96 9.75 3.169l.31 4.222a103.482 103.482 0 0 0-12.8-4.163Zm30.15 13.026 3.62-2.239c2.86 1.878 5.63 3.89 8.3 6.028l-1.01 4.15c-3.46-2.871-7.1-5.524-10.91-7.939Zm24.66 21.696 4.15-1.014c2.14 2.669 4.15 5.438 6.03 8.297l-2.24 3.62a103.388 103.388 0 0 0-7.94-10.903Zm16.81 28.254 4.22.315c1.21 3.199 2.26 6.454 3.17 9.753l-3.23 2.734a104.563 104.563 0 0 0-4.16-12.802Zm7.19 32.054 3.93 1.61c.17 3.416.17 6.839 0 10.255l-3.93 1.61c.14-2.228.21-4.474.21-6.737 0-2.264-.07-4.51-.21-6.738Zm-3.03 32.727 3.23 2.734c-.91 3.299-1.96 6.554-3.17 9.753l-4.22.315c1.65-4.144 3.04-8.418 4.16-12.802Zm-13.03 30.153 2.24 3.62a108.956 108.956 0 0 1-6.03 8.297l-4.15-1.014c2.88-3.454 5.53-7.096 7.94-10.903Zm-21.69 24.66 1.01 4.15c-2.67 2.138-5.44 4.15-8.3 6.028l-3.62-2.239c3.81-2.415 7.45-5.068 10.91-7.939Zm-28.26 16.802-.31 4.222c-3.2 1.209-6.46 2.266-9.75 3.169l-2.74-3.228c4.39-1.118 8.66-2.512 12.8-4.163Zm-32.05 7.196-1.61 3.932c-3.42.161-6.84.161-10.26 0l-1.61-3.932a106.862 106.862 0 0 0 13.48 0Zm-32.73-3.033-2.73 3.228c-3.3-.903-6.55-1.96-9.76-3.169l-.31-4.222c4.15 1.651 8.42 3.045 12.8 4.163Zm-30.15-13.026-3.62 2.239c-2.86-1.878-5.63-3.89-8.3-6.028l1.02-4.15c3.45 2.871 7.09 5.524 10.9 7.939Zm-24.66-21.696-4.15 1.014a108.956 108.956 0 0 1-6.03-8.297l2.24-3.62a106.2 106.2 0 0 0 7.94 10.903Zm-16.8-28.254-4.22-.315a107.686 107.686 0 0 1-3.17-9.753l3.22-2.734c1.12 4.384 2.52 8.658 4.17 12.802Zm-2.19-47.579 2.8-1.15c.37-3.555.93-7.088 1.68-10.582l-2.32-1.971a98.574 98.574 0 0 1 5.43-16.704l3.03-.227a97.58 97.58 0 0 1 4.87-9.547l-1.59-2.575a99.97 99.97 0 0 1 10.35-14.217l2.92.714a95.408 95.408 0 0 1 7.58-7.577l-.72-2.922a100.58 100.58 0 0 1 14.22-10.352l2.57 1.593a97.363 97.363 0 0 1 9.55-4.865l.23-3.036a99.285 99.285 0 0 1 16.7-5.431l1.97 2.326c3.5-.752 7.03-1.312 10.58-1.676l1.16-2.808a101.488 101.488 0 0 1 17.57 0l1.15 2.808c3.55.364 7.09.924 10.58 1.676l1.97-2.326a99.394 99.394 0 0 1 16.71 5.431l.22 3.036a97.363 97.363 0 0 1 9.55 4.865l2.57-1.593a100.01 100.01 0 0 1 14.22 10.352l-.71 2.922a98.884 98.884 0 0 1 7.58 7.577l2.92-.714c3.85 4.416 7.31 9.172 10.35 14.217l-1.59 2.575a97.498 97.498 0 0 1 4.86 9.547l3.04.227a99.476 99.476 0 0 1 5.43 16.704l-2.33 1.971a99.502 99.502 0 0 1 1.68 10.582l2.81 1.15c.25 2.896.38 5.827.38 8.788 0 2.96-.13 5.891-.38 8.787l-2.81 1.15a99.502 99.502 0 0 1-1.68 10.582l2.33 1.971a99.476 99.476 0 0 1-5.43 16.704l-3.04.227a97.498 97.498 0 0 1-4.86 9.547l1.59 2.575c-3.04 5.045-6.5 9.801-10.35 14.217l-2.92-.714a98.884 98.884 0 0 1-7.58 7.577l.71 2.922a100.01 100.01 0 0 1-14.22 10.352l-2.57-1.593a97.144 97.144 0 0 1-9.55 4.865l-.22 3.036a99.394 99.394 0 0 1-16.71 5.431l-1.97-2.326a97.495 97.495 0 0 1-10.58 1.676l-1.15 2.808a101.488 101.488 0 0 1-17.57 0l-1.16-2.808a97.884 97.884 0 0 1-10.58-1.676l-1.97 2.326a99.285 99.285 0 0 1-16.7-5.431l-.23-3.036a97.144 97.144 0 0 1-9.55-4.865l-2.57 1.593a100.58 100.58 0 0 1-14.22-10.352l.72-2.922a95.408 95.408 0 0 1-7.58-7.577l-2.92.714a99.97 99.97 0 0 1-10.35-14.217l1.59-2.575a97.58 97.58 0 0 1-4.87-9.547l-3.03-.227a98.574 98.574 0 0 1-5.43-16.704l2.32-1.971a99.502 99.502 0 0 1-1.68-10.582l-2.8-1.15c-.25-2.896-.38-5.827-.38-8.787 0-2.961.13-5.892.38-8.788Zm99.79-83.738c-51.06 0-92.52 41.459-92.52 92.526 0 51.066 41.46 92.525 92.52 92.525 51.07 0 92.53-41.459 92.53-92.525 0-51.067-41.46-92.526-92.53-92.526Z" style="fill:#f2f2f2" transform="matrix(.58477 0 0 .58476 -392.652 27.341)"/><path d="m1342.57 915.448 1.24 6.796c3.5.87 6.85 2.259 9.95 4.121l5.68-3.928a42.62 42.62 0 0 1 10.59 10.593l-3.93 5.683a36.247 36.247 0 0 1 4.12 9.949l6.8 1.24c.88 4.955.88 10.026 0 14.981l-6.8 1.24a36.247 36.247 0 0 1-4.12 9.949l3.93 5.683a42.62 42.62 0 0 1-10.59 10.593l-5.68-3.928a36.379 36.379 0 0 1-9.95 4.121l-1.24 6.795a42.64 42.64 0 0 1-14.98 0l-1.25-6.795c-3.5-.87-6.85-2.26-9.95-4.121l-5.68 3.928a42.62 42.62 0 0 1-10.59-10.593l3.93-5.683a36.247 36.247 0 0 1-4.12-9.949l-6.8-1.24a42.836 42.836 0 0 1 0-14.981l6.8-1.24a36.247 36.247 0 0 1 4.12-9.949l-3.93-5.683a42.62 42.62 0 0 1 10.59-10.593l5.68 3.928a36.348 36.348 0 0 1 9.95-4.121l1.25-6.796a42.64 42.64 0 0 1 14.98 0Zm-7.49 9.137c18.1 0 32.8 14.7 32.8 32.807 0 18.108-14.7 32.808-32.8 32.808-18.11 0-32.81-14.7-32.81-32.808 0-18.107 14.7-32.807 32.81-32.807Z" style="fill:#f2f2f2" transform="matrix(1.49395 0 0 1.49394 -1688.41 -967.772)"/><circle cx="1334.56" cy="958.126" r="8.43" style="fill:#f2f2f2" transform="translate(-794.262 -327.486) scale(.82453)"/><path d="M1235.32 887.402c15.11 0 27.38 12.27 27.38 27.383s-12.27 27.383-27.38 27.383c-15.12 0-27.39-12.27-27.39-27.383s12.27-27.383 27.39-27.383Zm-8.95 43.135a4.815 4.815 0 0 0 0-6.809 4.808 4.808 0 0 0-6.8 0 4.815 4.815 0 0 0 0 6.809 4.806 4.806 0 0 0 6.8 0Zm26.41-20.566a4.81 4.81 0 0 0-4.81 4.814 4.81 4.81 0 1 0 9.62 0 4.81 4.81 0 0 0-4.81-4.814Zm-8.52-10.938a4.814 4.814 0 1 0 6.81 6.808 4.814 4.814 0 1 0-6.81-6.808Zm-24.69 6.808a4.806 4.806 0 0 0 6.8 0 4.814 4.814 0 0 0 0-6.808 4.806 4.806 0 0 0-6.8 0 4.814 4.814 0 0 0 0 6.808Zm15.75-1.188c-5.59 0-10.13 4.54-10.13 10.132s4.54 10.132 10.13 10.132c5.59 0 10.13-4.54 10.13-10.132s-4.54-10.132-10.13-10.132Zm4.81 27.594a4.81 4.81 0 0 0-4.81-4.814 4.82 4.82 0 0 0-4.82 4.814 4.82 4.82 0 0 0 4.82 4.814 4.81 4.81 0 0 0 4.81-4.814Zm10.94-8.519a4.815 4.815 0 1 0-6.81 6.809 4.815 4.815 0 0 0 6.81-6.809Zm-20.57-26.405a4.82 4.82 0 0 0 4.82 4.814 4.81 4.81 0 0 0 4.81-4.814 4.812 4.812 0 0 0-4.81-4.815 4.82 4.82 0 0 0-4.82 4.815Zm-12.64 22.276c2.65 0 4.81-2.157 4.81-4.814a4.817 4.817 0 0 0-4.81-4.814 4.82 4.82 0 0 0-4.82 4.814 4.82 4.82 0 0 0 4.82 4.814Z" style="fill:#f2f2f2" transform="translate(-1797.309 -1095.122) scale(1.70274)"/><path d="M1235.32 887.402c15.11 0 27.38 12.27 27.38 27.383s-12.27 27.383-27.38 27.383c-15.12 0-27.39-12.27-27.39-27.383s12.27-27.383 27.39-27.383Zm0 12.322c8.31 0 15.06 6.749 15.06 15.061 0 8.312-6.75 15.061-15.06 15.061s-15.06-6.749-15.06-15.061c0-8.312 6.75-15.061 15.06-15.061Z" style="fill:#f2f2f2" transform="translate(-380.874 -46.22) scale(.55613)"/><path d="m1088.35 1121.67 18.26-15.44-5.89 9.04c3.7-4.42 7.4-8.83 13.23-11.66l-6.49 8.27c4.4-4.67 8.86-9.28 15.64-11.78-4.23 3.23-7.5 6.77-9.58 10.71 12.17-7.96 26.03-13.33 42.74-14.31-5.23 3.62-8.95 7.8-10.87 12.64 8.76-3.84 17.09-8.49 24.63-14.6-1.16 5.22-3.87 10.01-7.47 14.54 16.2-17.9 27.87-17.97 44.27-32.03 6.27-5.38 13.04-8.77 15.52-17.48 2.4 8.12-.66 16.34-11.14 24.68 3.6-1.41 7.03-3.36 10.01-6.74-7.64 15.5-17.05 26.2-27.49 34.1 5.41-2.07 10.81-4.86 16.22-9.9-10.37 17.95-26.58 29.9-52.74 31.64 9.8.31 19.74-.24 30.23-3.98-14.43 7.98-29.88 14.62-51.6 12.96 11.67 2.06 23.65 2.37 36.37-1.51-21.66 11.96-43.56 16.24-66.08 1.12.68 3.97 2.56 7.58 5.93 10.75-5.44-2.01-10.5-5.86-15.13-11.9.28 3.13.9 6.15 3.04 8.74-5.82-7-11.86-13.84-15.11-22.77 36.44 12.17 79.51-2.07 107.53-27.4-45.57 26.04-82.66 32.05-104.03 22.31Zm11.61 27.86.01.01-.01-.01Z" style="fill:#f2f2f2" transform="matrix(1.41452 0 0 1.41451 -978.947 -842.614)"/><path d="m1062.71 1102.32 11.87 6.44c.14.08.27.2.36.34 5.93 9.19 16.46 14.6 30.59 15.74 21.59 1.75 51.46-6.41 86.35-26.35a1 1 0 0 1 1.3.28c.3.41.24.99-.13 1.33-32.49 29.38-85.05 43.9-124.46 20.29a.982.982 0 0 1-.41-.47l-6.87-16.34a.987.987 0 0 1 .25-1.13c.31-.28.77-.33 1.15-.13Zm1.55 3.11s5.63 13.41 5.64 13.41c35.51 21.08 81.77 10.62 113.71-13.53-31.37 16.48-58.3 23.14-78.24 21.53-14.74-1.2-25.71-6.9-31.97-16.44l-9.14-4.97ZM1103.84 1076.55c1.49-8.47 5.48-15.75 12.07-21.8-1.83 2.8-1.97 5.6-1.34 8.4 5.63-11.26 12.84-21.1 22.67-28.59-1.49 4.11-2.32 8.37-2.55 12.75 3.4-7.25 7.49-13.93 12.77-19.65-.22 5.51.09 9.62.86 12.54.04-18.43 28.94-30.47 31.22-53.674 11.53 49.494-19.59 81.264-55.99 91.524l7.86 2.04-23.66 3.77-24.26 8.09 19.87-11.74v-.01c13.73-7.83 26.65-16.43 38.21-26.34 12-10.29 22.55-21.98 31.04-35.69.15-.23.08-.53-.15-.68a.507.507 0 0 0-.68.15c-8.7 13.4-19.39 24.76-31.49 34.7-11.11 9.11-23.41 17.02-36.45 24.21Z" style="fill:#f2f2f2" transform="matrix(1.41452 0 0 1.41451 -978.947 -842.614)"/><path d="m1088.35 1121.67 18.26-15.44-5.89 9.04c3.7-4.42 7.4-8.83 13.23-11.66l-6.49 8.27c4.4-4.67 8.86-9.28 15.64-11.78-4.23 3.23-7.5 6.77-9.58 10.71 12.17-7.96 26.03-13.33 42.74-14.31-5.23 3.62-8.95 7.8-10.87 12.64 8.76-3.84 17.09-8.49 24.63-14.6-1.16 5.22-3.87 10.01-7.47 14.54 16.2-17.9 27.87-17.97 44.27-32.03 6.27-5.38 13.04-8.77 15.52-17.48 2.4 8.12-.66 16.34-11.14 24.68 3.6-1.41 7.03-3.36 10.01-6.74-7.64 15.5-17.05 26.2-27.49 34.1 5.41-2.07 10.81-4.86 16.22-9.9-10.37 17.95-26.58 29.9-52.74 31.64 9.8.31 19.74-.24 30.23-3.98-14.43 7.98-29.88 14.62-51.6 12.96 11.67 2.06 23.65 2.37 36.37-1.51-21.66 11.96-43.56 16.24-66.08 1.12.68 3.97 2.56 7.58 5.93 10.75-5.44-2.01-10.5-5.86-15.13-11.9.28 3.13.9 6.15 3.04 8.74-5.82-7-11.86-13.84-15.11-22.77 36.44 12.17 79.51-2.07 107.53-27.4-45.57 26.04-82.66 32.05-104.03 22.31Zm11.61 27.86.01.01-.01-.01Z" style="fill:#f2f2f2" transform="matrix(-1.41452 0 0 1.41451 1813.001 -842.614)"/><path d="m1061.31 1103.58 6.87 16.34c.08.19.22.36.41.47 39.41 23.61 91.97 9.09 124.46-20.29.37-.34.43-.92.13-1.33a1 1 0 0 0-1.3-.28c-34.89 19.94-64.76 28.1-86.35 26.35-14.13-1.14-24.66-6.55-30.59-15.74-.09-.14-.22-.26-.36-.34l-11.87-6.44c-.38-.2-.84-.15-1.15.13-.32.29-.42.74-.25 1.13Zm2.95 1.85 9.14 4.97c6.26 9.54 17.23 15.24 31.97 16.44 19.94 1.61 46.87-5.05 78.25-21.54-31.95 24.16-78.21 34.62-113.73 13.54l-5.63-13.41ZM1103.84 1076.55c1.49-8.47 5.48-15.75 12.07-21.8-1.83 2.8-1.97 5.6-1.34 8.4 5.63-11.26 12.84-21.1 22.67-28.59-1.49 4.11-2.32 8.37-2.55 12.75 3.4-7.25 7.49-13.93 12.77-19.65-.22 5.51.09 9.62.86 12.54.04-18.43 28.94-30.47 31.22-53.674 11.53 49.494-19.59 81.264-55.99 91.524l7.86 2.04-23.66 3.77-24.26 8.09 19.87-11.74v-.01c13.73-7.83 26.65-16.43 38.21-26.34 12-10.29 22.55-21.98 31.04-35.69.15-.23.08-.53-.15-.68a.507.507 0 0 0-.68.15c-8.7 13.4-19.39 24.76-31.49 34.7-11.11 9.11-23.41 17.02-36.45 24.21Z" style="fill:#f2f2f2" transform="matrix(-1.41452 0 0 1.41451 1813.001 -842.614)"/><path d="M0 0v-.59h.09V0H0Zm.12 0v-.59h.03V0H.12Zm.06 0v-.59h.03V0H.18Zm.06 0v-.59h.03V0H.24Zm.12 0v-.59h.09V0H.36Z" style="fill:#f2f2f2;fill-rule:nonzero" transform="matrix(293.96837 0 0 293.96688 857.583 487.617)"/><path d="M0 0v-.59h.09V0H0Zm.12 0v-.59h.03V0H.12Zm.06 0v-.59h.03V0H.18Zm.06 0v-.59h.09V0H.24Zm.18 0v-.59h.03V0H.42Z" style="fill:#f2f2f2;fill-rule:nonzero" transform="matrix(293.96837 0 0 293.96688 998.687 487.617)"/><path d="M0 0v-.59h.09V0H0Zm.12 0v-.59h.03V0H.12Zm.06 0v-.59h.03V0H.18ZM.3 0v-.59h.03V0H.3Zm.06 0v-.59h.09V0H.36Z" style="fill:#f2f2f2;fill-rule:nonzero" transform="matrix(293.96837 0 0 293.96688 1139.792 487.617)"/><path d="M0 0v-.59h.03V0H0Zm.06 0v-.59h.03V0H.06Zm.06 0v-.59h.03V0H.12Zm.12 0v-.59h.09V0H.24Zm.12 0v-.59h.09V0H.36Z" style="fill:#f2f2f2;fill-rule:nonzero" transform="matrix(293.96837 0 0 293.96688 1280.897 487.617)"/><path d="M0 0v-.59h.03V0H0Zm.12 0v-.59h.09V0H.12Zm.12 0v-.59h.03V0H.24ZM.3 0v-.59h.09V0H.3Zm.12 0v-.59h.03V0H.42Z" style="fill:#f2f2f2;fill-rule:nonzero" transform="matrix(293.96837 0 0 293.96688 1422.002 487.617)"/><path d="M0 0v-.59h.03V0H0Zm.06 0v-.59h.09V0H.06Zm.12 0v-.59h.03V0H.18Zm.06 0v-.59h.09V0H.24Zm.18 0v-.59h.03V0H.42Z" style="fill:#f2f2f2;fill-rule:nonzero" transform="matrix(293.96837 0 0 293.96688 1563.107 487.617)"/><path d="M0 0v-.59h.03V0H0Zm.06 0v-.59h.03V0H.06Zm.06 0v-.59h.09V0H.12Zm.12 0v-.59h.09V0H.24Zm.18 0v-.59h.03V0H.42Z" style="fill:#f2f2f2;fill-rule:nonzero" transform="matrix(293.96837 0 0 293.96688 1704.212 487.617)"/><path d="M0 0v-.59h.09V0H0Zm.18 0v-.59h.03V0H.18Zm.06 0v-.59h.03V0H.24ZM.3 0v-.59h.03V0H.3Zm.06 0v-.59h.09V0H.36Z" style="fill:#f2f2f2;fill-rule:nonzero" transform="matrix(293.96837 0 0 293.96688 1845.316 487.617)"/><path d="M0 0v-.59h.03V0H0Zm.06 0v-.59h.03V0H.06Zm.06 0v-.59h.09V0H.12ZM.3 0v-.59h.03V0H.3Zm.06 0v-.59h.09V0H.36Z" style="fill:#f2f2f2;fill-rule:nonzero" transform="matrix(293.96837 0 0 293.96688 1986.421 487.617)"/><path d="M0 0v-.59h.03V0H0Zm.06 0v-.59h.09V0H.06Zm.12 0v-.59h.03V0H.18ZM.3 0v-.59h.09V0H.3Zm.12 0v-.59h.03V0H.42Z" style="fill:#f2f2f2;fill-rule:nonzero" transform="matrix(293.96837 0 0 293.96688 2127.526 487.617)"/><path d="M0 0v-.59h.09V0H0Zm.12 0v-.59h.03V0H.12Zm.06 0v-.59h.09V0H.18ZM.3 0v-.59h.03V0H.3Zm.12 0v-.59h.03V0H.42Z" style="fill:#f2f2f2;fill-rule:nonzero" transform="matrix(293.96837 0 0 293.96688 2268.63 487.617)"/><path d="M.19-.322h.149L.467 0H.313L.19-.322Zm.149 0H.19l.123-.314h.154l-.128.314ZM.044-.636h.143V0H.044v-.636Z" style="fill:#f2f2f2;fill-rule:nonzero" transform="matrix(195.97891 0 0 195.97792 852.683 684.625)"/><path d="M.29-.363v-.143a.034.034 0 0 0-.005-.02C.281-.529.274-.531.264-.531H.085v-.105h.222c.045 0 .078.01.097.029.019.02.029.047.029.082v.177c0 .034-.01.061-.029.08-.019.02-.052.03-.097.03h-.21v-.101h.167c.01 0 .017-.002.021-.006C.288-.348.29-.354.29-.363ZM.044-.636h.143V0H.044v-.636Zm.144.342H.33L.465 0H.312L.188-.294Z" style="fill:#f2f2f2;fill-rule:nonzero" transform="matrix(195.97891 0 0 195.97792 1024.165 684.625)"/><path d="M.38-.219v.104H.103v-.104H.38ZM.479 0H.335L.24-.488.146 0H.004l.145-.636h.182L.479 0Z" style="fill:#f2f2f2;fill-rule:nonzero" transform="matrix(195.97891 0 0 195.97792 1194.47 684.625)"/><path d="M.183-.513v.39c0 .009.002.016.006.019C.193-.1.2-.098.21-.098h.024V0H.166C.121 0 .088-.01.069-.03a.106.106 0 0 1-.03-.08v-.415a.11.11 0 0 1 .03-.082c.019-.019.052-.029.097-.029h.073v.098H.21c-.01 0-.017.002-.021.005-.004.004-.006.011-.006.02Zm.238.171v.095H.228v-.095h.193ZM.278-.43v-.083c0-.009-.002-.016-.006-.02C.268-.536.261-.538.251-.538H.222v-.098h.073c.045 0 .078.01.097.029.019.02.029.047.029.082v.095H.278Zm0 .307v-.154h.143v.167c0 .034-.01.061-.029.08C.373-.01.34 0 .295 0h-.07v-.098h.026c.01 0 .017-.002.021-.006.004-.003.006-.01.006-.019Z" style="fill:#f2f2f2;fill-rule:nonzero" transform="matrix(195.97891 0 0 195.97792 1367.52 684.625)"/><path d="M.218-.09v-.17c0-.013-.002-.022-.005-.026C.209-.289.2-.291.187-.291H.119c-.027 0-.046-.007-.059-.02C.047-.324.04-.343.04-.37v-.173c0-.027.007-.047.02-.06.013-.013.032-.019.059-.019h.088c.027 0 .047.006.06.019.013.013.019.033.019.06v.096H.217v-.085c0-.013-.002-.022-.005-.026C.208-.561.199-.563.186-.563H.14c-.013 0-.021.002-.025.005-.004.004-.006.013-.006.026v.151c0 .013.002.021.006.025S.127-.35.14-.35h.068c.027 0 .047.007.06.019.013.013.019.033.019.06v.192c0 .027-.006.046-.019.059C.255-.007.235 0 .208 0H.121C.094 0 .075-.007.062-.02.049-.033.042-.052.042-.079v-.096h.069v.085c0 .013.002.021.006.025s.012.006.025.006h.045c.013 0 .022-.002.026-.006.003-.004.005-.012.005-.025Z" style="fill:#f2f2f2;fill-rule:nonzero" transform="matrix(195.97891 0 0 195.97792 1648.75 684.625)"/><path d="M.105-.622h.068V0H.105v-.622Zm.168 0v.059H.005v-.059h.268Z" style="fill:#f2f2f2;fill-rule:nonzero" transform="matrix(195.97891 0 0 195.97792 1791.226 684.625)"/><path d="M.244-.09v-.532h.068v.543c0 .027-.006.046-.019.059C.28-.007.26 0 .233 0H.172v-.059h.041c.013 0 .022-.002.026-.006.003-.004.005-.012.005-.025ZM.12-.622v.532c0 .013.002.021.006.025s.012.006.025.006h.031V0H.131C.104 0 .085-.007.072-.02.059-.033.052-.052.052-.079v-.543H.12Z" style="fill:#f2f2f2;fill-rule:nonzero" transform="matrix(195.97891 0 0 195.97792 1924.1 684.625)"/><path d="M.262-.397v-.135c0-.013-.002-.022-.005-.026C.253-.561.244-.563.231-.563H.094v-.059h.158c.027 0 .047.006.06.019.013.013.019.033.019.06v.146H.262Zm0 .307v-.332h.069v.343c0 .027-.006.046-.019.059C.299-.007.279 0 .252 0H.094v-.059h.137c.013 0 .022-.002.026-.006C.26-.069.262-.077.262-.09ZM.055-.622h.069V0H.055v-.622Z" style="fill:#f2f2f2;fill-rule:nonzero" transform="matrix(195.97891 0 0 195.97792 2073.828 684.625)"/><path style="fill:#f2f2f2;fill-rule:nonzero" d="M.065-.622h.068V0H.065z" transform="matrix(195.97891 0 0 195.97792 2226.887 684.625)"/><path d="M.242-.141v-.391c0-.013-.002-.022-.005-.026C.233-.561.224-.563.211-.563H.177v-.059h.054c.027 0 .047.006.06.019.013.013.019.033.019.06v.402H.242Zm0 .051v-.101H.31v.112c0 .027-.006.046-.019.059C.278-.007.258 0 .231 0H.17v-.059h.041c.013 0 .022-.002.026-.006C.24-.069.242-.077.242-.09ZM.118-.532v.392H.05v-.403c0-.027.007-.047.02-.06.013-.013.032-.019.059-.019h.054v.059H.149c-.013 0-.021.002-.025.005-.004.004-.006.013-.006.026Zm0 .333v.109c0 .013.002.021.006.025s.012.006.025.006H.18V0H.129C.102 0 .083-.007.07-.02.057-.033.05-.052.05-.079v-.12h.068Z" style="fill:#f2f2f2;fill-rule:nonzero" transform="matrix(195.97891 0 0 195.97792 2344.083 684.625)"/></svg>